<mxfile host="app.diagrams.net" modified="2024-06-13T01:19:54.068Z" agent="Mozilla/5.0 (Windows NT 10.0; Win64; x64; rv:123.0) Gecko/20100101 Firefox/123.0" version="21.5.2" etag="4VUXQmJ29VNwWoz-3pQl" type="github">
  <diagram name="Страница 1" id="euu9qZain_rxDdFMZF5m">
    <mxGraphModel>
      <root>
        <mxCell id="0" />
        <mxCell id="1" parent="0" />
      </root>
    </mxGraphModel>
  </diagram>
</mxfile>
